<svg width="18" height="18" viewBox="0 0 18 18" fill="none" xmlns="http://www.w3.org/2000/svg">
<g clip-path="url(#clip0_756_125)">
<path fill-rule="evenodd" clip-rule="evenodd" d="M18 9.00024C18 13.9708 13.9706 18.0002 9 18.0002C4.02944 18.0002 0 13.9708 0 9.00024C0 4.02968 4.02944 0.000244141 9 0.000244141C13.9706 0.000244141 18 4.02968 18 9.00024ZM9.32252 6.64444C8.44714 7.00854 6.6976 7.76214 4.07392 8.90524C3.64787 9.07466 3.42469 9.24041 3.40438 9.40247C3.37004 9.67637 3.71303 9.78422 4.1801 9.93109C4.24364 9.95106 4.30947 9.97176 4.37695 9.9937C4.83648 10.1431 5.45462 10.3178 5.77597 10.3248C6.06746 10.3311 6.3928 10.2109 6.75198 9.96425C9.20337 8.30949 10.4688 7.4731 10.5482 7.45507C10.6043 7.44235 10.682 7.42635 10.7346 7.47313C10.7872 7.5199 10.782 7.60848 10.7765 7.63225C10.7425 7.7771 9.3961 9.02881 8.69934 9.67658C8.48213 9.87852 8.32806 10.0218 8.29656 10.0545C8.226 10.1278 8.15409 10.1971 8.08498 10.2637C7.65807 10.6752 7.33793 10.9839 8.10271 11.4878C8.47023 11.73 8.76432 11.9303 9.05771 12.1301C9.37813 12.3483 9.69771 12.5659 10.1112 12.837C10.2166 12.906 10.3172 12.9778 10.4152 13.0476C10.7881 13.3135 11.1231 13.5523 11.5369 13.5142C11.7774 13.4921 12.0258 13.266 12.152 12.5915C12.4502 10.9976 13.0362 7.54409 13.1717 6.12097C13.1835 5.99629 13.1686 5.83672 13.1566 5.76667C13.1446 5.69663 13.1196 5.59683 13.0285 5.52294C12.9207 5.43545 12.7542 5.417 12.6798 5.41831C12.3413 5.42427 11.8219 5.60486 9.32252 6.64444Z" fill="white"/>
</g>
<defs>
<clipPath id="clip0_756_125">
<rect width="18" height="18" fill="white" transform="translate(0 0.000244141)"/>
</clipPath>
</defs>
</svg>
