<svg width="20" height="20" viewBox="0 0 20 20" fill="none" xmlns="http://www.w3.org/2000/svg">
<g clip-path="url(#clip0_756_133)">
<path d="M19.5788 5.18592C19.465 4.7631 19.2421 4.37758 18.9325 4.06796C18.6229 3.75834 18.2373 3.53547 17.8145 3.42166C16.2574 3.00024 10.0004 3.00024 10.0004 3.00024C10.0004 3.00024 3.74333 3.00024 2.18621 3.42166C1.76339 3.53547 1.37788 3.75834 1.06826 4.06796C0.758637 4.37758 0.535769 4.7631 0.421959 5.18592C0.131211 6.77394 -0.00988161 8.38574 0.000537443 10.0001C-0.00988161 11.6145 0.131211 13.2263 0.421959 14.8143C0.535769 15.2371 0.758637 15.6226 1.06826 15.9322C1.37788 16.2419 1.76339 16.4647 2.18621 16.5785C3.74333 17 10.0004 17 10.0004 17C10.0004 17 16.2574 17 17.8145 16.5785C18.2373 16.4647 18.6229 16.2419 18.9325 15.9322C19.2421 15.6226 19.465 15.2371 19.5788 14.8143C19.8695 13.2263 20.0106 11.6145 20.0002 10.0001C20.0106 8.38574 19.8695 6.77394 19.5788 5.18592ZM8.0004 13V7.00017L13.1932 10.0001L8.0004 13Z" fill="white"/>
</g>
<defs>
<clipPath id="clip0_756_133">
<rect width="20" height="20" fill="white" transform="translate(0 0.000244141)"/>
</clipPath>
</defs>
</svg>
