<svg width="32" height="32" viewBox="0 0 32 32" fill="none" xmlns="http://www.w3.org/2000/svg">
<path fill-rule="evenodd" clip-rule="evenodd" d="M26.6667 23.9999H5.33333C5.33333 25.4727 6.52724 26.6666 8 26.6666H24C25.4728 26.6666 26.6667 25.4727 26.6667 23.9999ZM5.33333 21.3333C3.86057 21.3333 2.66667 22.5272 2.66667 23.9999C2.66667 26.9454 5.05448 29.3333 8 29.3333H24C26.9455 29.3333 29.3333 26.9454 29.3333 23.9999C29.3333 22.5272 28.1394 21.3333 26.6667 21.3333H5.33333Z" fill="#C19D6D"/>
<path fill-rule="evenodd" clip-rule="evenodd" d="M19.54 8.53079C19.8337 7.97416 20 7.33987 20 6.66675C20 4.45761 18.2091 2.66675 16 2.66675C13.7909 2.66675 12 4.45761 12 6.66675C12 7.33987 12.1663 7.97416 12.46 8.53079C7.5605 10.0413 4 14.6049 4 20.0001V22.6667C4 23.4031 4.59695 24.0001 5.33333 24.0001H26.6667C27.403 24.0001 28 23.4031 28 22.6667V20.0001C28 14.6049 24.4395 10.0413 19.54 8.53079ZM17.3333 6.66675C17.3333 7.40313 16.7364 8.00008 16 8.00008C15.2636 8.00008 14.6667 7.40313 14.6667 6.66675C14.6667 5.93037 15.2636 5.33341 16 5.33341C16.7364 5.33341 17.3333 5.93037 17.3333 6.66675ZM16 10.6667C10.8453 10.6667 6.66667 14.8454 6.66667 20.0001V21.3334H25.3333V20.0001C25.3333 14.8454 21.1547 10.6667 16 10.6667Z" fill="#C19D6D"/>
</svg>
