<svg width="18" height="18" viewBox="0 0 18 18" fill="none" xmlns="http://www.w3.org/2000/svg">
<g clip-path="url(#clip0_756_129)">
<path d="M18 9.00024C18 4.02968 13.9706 0.000244141 9 0.000244141C4.02943 0.000244141 0 4.02968 0 9.00024C0 13.4923 3.29115 17.2157 7.59375 17.8909V11.6018H5.30859V9.00024H7.59375V7.01743C7.59375 4.76181 8.93742 3.51587 10.9932 3.51587C11.9776 3.51587 13.0078 3.69165 13.0078 3.69165V5.90649H11.873C10.755 5.90649 10.4062 6.6003 10.4062 7.31274V9.00024H12.9023L12.5033 11.6018H10.4062V17.8909C14.7088 17.2157 18 13.4923 18 9.00024Z" fill="white"/>
</g>
<defs>
<clipPath id="clip0_756_129">
<rect width="18" height="18" fill="white" transform="translate(0 0.000244141)"/>
</clipPath>
</defs>
</svg>
