<svg width="32" height="32" viewBox="0 0 32 32" fill="none" xmlns="http://www.w3.org/2000/svg">
<path fill-rule="evenodd" clip-rule="evenodd" d="M22.6667 2.66675C26.3486 2.66675 29.3333 5.65152 29.3333 9.33342V18.6667C29.3333 19.2786 28.9169 19.8119 28.3234 19.9603L24 21.0411V28.0001C24 28.7365 23.403 29.3334 22.6667 29.3334C21.9303 29.3334 21.3333 28.7365 21.3333 28.0001V4.00008C21.3333 3.2637 21.9303 2.66675 22.6667 2.66675ZM24 18.2924L26.6667 17.6257V9.33342C26.6667 7.59179 25.5536 6.11014 24 5.56102V18.2924Z" fill="#C19D6D"/>
<path d="M5.33333 4.00008C5.33333 3.2637 4.73638 2.66675 4 2.66675C3.26362 2.66675 2.66667 3.2637 2.66667 4.00008V9.33342C2.66667 12.5587 4.95701 15.249 8 15.8667V28.0001C8 28.7365 8.59695 29.3334 9.33333 29.3334C10.0697 29.3334 10.6667 28.7365 10.6667 28.0001V15.8667C13.7097 15.249 16 12.5587 16 9.33342V4.00008C16 3.2637 15.403 2.66675 14.6667 2.66675C13.9303 2.66675 13.3333 3.2637 13.3333 4.00008V9.33342C13.3333 11.075 12.2203 12.5567 10.6667 13.1058V4.00008C10.6667 3.2637 10.0697 2.66675 9.33333 2.66675C8.59695 2.66675 8 3.2637 8 4.00008V13.1058C6.44641 12.5567 5.33333 11.075 5.33333 9.33342V4.00008Z" fill="#C19D6D"/>
</svg>
