<svg width="20" height="20" viewBox="0 0 20 20" fill="none" xmlns="http://www.w3.org/2000/svg">
<path fill-rule="evenodd" clip-rule="evenodd" d="M16.6667 4.16667H3.33334C2.87311 4.16667 2.50001 4.53976 2.50001 5V15C2.50001 15.4602 2.87311 15.8333 3.33334 15.8333H16.6667C17.1269 15.8333 17.5 15.4602 17.5 15V5C17.5 4.53976 17.1269 4.16667 16.6667 4.16667ZM3.33334 2.5C1.95263 2.5 0.833344 3.61929 0.833344 5V15C0.833344 16.3807 1.95263 17.5 3.33334 17.5H16.6667C18.0474 17.5 19.1667 16.3807 19.1667 15V5C19.1667 3.61929 18.0474 2.5 16.6667 2.5H3.33334Z" fill="white"/>
<path fill-rule="evenodd" clip-rule="evenodd" d="M4.35983 6.13312C4.65446 5.77956 5.17993 5.73179 5.5335 6.02642L9.46653 9.30395C9.77556 9.56148 10.2245 9.56148 10.5335 9.30394L14.4665 6.02642C14.8201 5.73179 15.3456 5.77956 15.6402 6.13312C15.9348 6.48668 15.8871 7.01215 15.5335 7.30679L11.6005 10.5843C10.6734 11.3569 9.32667 11.3569 8.39955 10.5843L4.46652 7.30679C4.11296 7.01215 4.06519 6.48668 4.35983 6.13312Z" fill="white"/>
</svg>
