<svg width="20" height="20" viewBox="0 0 20 20" fill="none" xmlns="http://www.w3.org/2000/svg">
<g clip-path="url(#clip0_681_44)">
<path fill-rule="evenodd" clip-rule="evenodd" d="M3.87298 1.96027C4.94875 0.884501 6.72792 1.01094 7.64075 2.22804L9.15597 4.24835C9.90245 5.24365 9.80347 6.63638 8.92374 7.51611L7.8066 8.63325C7.91486 8.91505 8.27127 9.53345 9.3566 10.6188C10.4419 11.7041 11.0603 12.0605 11.3421 12.1688L12.4593 11.0516C13.339 10.1719 14.7317 10.0729 15.727 10.8194L17.7473 12.3346C18.9644 13.2475 19.0909 15.0266 18.0151 16.1024C17.6654 16.4522 17.6062 16.5113 17.0225 17.095C16.4277 17.6899 15.1646 18.2458 13.8859 18.3014C11.8848 18.3884 9.16663 17.4999 5.82107 14.1543C2.47551 10.8088 1.58695 8.09062 1.67396 6.08951C1.72236 4.97634 2.07627 3.75373 2.88505 2.95752C3.46405 2.36921 3.53934 2.29391 3.87298 1.96027ZM3.33905 6.16191C3.27874 7.54903 3.86333 9.83956 6.99958 12.9758C10.1358 16.1121 12.4264 16.6966 13.8135 16.6363C15.1084 16.58 15.803 15.9543 15.844 15.9165L16.8366 14.9239C17.1952 14.5653 17.153 13.9723 16.7473 13.668L14.727 12.1527C14.3953 11.9039 13.931 11.9369 13.6378 12.2302C13.196 12.672 12.8944 12.978 12.304 13.5662C11.0776 14.7879 8.97841 12.5976 8.17809 11.7973C7.44261 11.0618 5.20122 8.89593 6.40801 7.67483C6.4104 7.67243 6.73544 7.34738 7.74523 6.3376C8.03847 6.04436 8.07146 5.58011 7.82264 5.24835L6.30741 3.22804C6.00314 2.82234 5.41008 2.7802 5.05149 3.13879C4.72144 3.46883 4.34793 3.84235 4.0599 4.13237C3.46709 4.72927 3.37078 5.43224 3.33905 6.16191Z" fill="white"/>
</g>
<defs>
<clipPath id="clip0_681_44">
<rect width="20" height="20" fill="white"/>
</clipPath>
</defs>
</svg>
