<svg width="18" height="18" viewBox="0 0 18 18" fill="none" xmlns="http://www.w3.org/2000/svg">
<g clip-path="url(#clip0_756_131)">
<path d="M12.8044 0.000244141H9.77086V12.2611C9.77086 13.722 8.60414 14.922 7.1522 14.922C5.70025 14.922 4.53352 13.722 4.53352 12.2611C4.53352 10.8263 5.67433 9.65239 7.07443 9.60024V6.52199C3.98904 6.57414 1.5 9.10459 1.5 12.2611C1.5 15.4437 4.04089 18.0002 7.17814 18.0002C10.3153 18.0002 12.8562 15.4176 12.8562 12.2611V5.97414C13.997 6.80894 15.3971 7.30459 16.875 7.33069V4.25242C14.5934 4.17416 12.8044 2.29589 12.8044 0.000244141Z" fill="white"/>
</g>
<defs>
<clipPath id="clip0_756_131">
<rect width="18" height="18" fill="white" transform="translate(0 0.000244141)"/>
</clipPath>
</defs>
</svg>
